<svg width="62" height="62" viewBox="0 0 62 62" fill="none" xmlns="http://www.w3.org/2000/svg">
<rect width="62" height="62" fill="#1E1E1E"/>
<g id="Frame 4" clip-path="url(#clip0_0_1)">
<rect width="1600" height="5232" transform="translate(-230 -50)" fill="white"/>
<rect id="Rectangle 1" x="-230" y="-50" width="1600" height="800" fill="#07332F"/>
<path id="Vector" d="M-230 86.2079C-229.312 117.418 -216.419 147.117 -194.083 168.947C-171.748 190.776 -141.745 203 -110.5 203C-79.255 203 -49.2522 190.776 -26.9165 168.947C-4.58095 147.117 8.31155 117.418 8.99998 86.2079L8.99994 -50L-230 -50L-230 86.2079ZM-34.3944 86.2079C-34.3891 84.4433 -33.6852 82.7526 -32.4364 81.5049C-31.1876 80.2571 -29.4953 79.5539 -27.7293 79.5486C-25.9755 79.5558 -24.2948 80.2512 -23.0495 81.485C-22.4238 82.103 -21.9263 82.8383 -21.5856 83.6487C-21.2449 84.4592 -21.0677 85.3288 -21.0641 86.2079C-21.0845 109.901 -30.5138 132.617 -47.2818 149.37C-64.0499 166.123 -86.7864 175.544 -110.5 175.565C-112.266 175.56 -113.958 174.856 -115.207 173.609C-116.456 172.361 -117.16 170.67 -117.165 168.906C-117.16 167.141 -116.456 165.45 -115.207 164.203C-113.958 162.955 -112.266 162.252 -110.5 162.246C-90.3294 162.201 -70.9979 154.175 -56.7351 139.925C-42.4723 125.675 -34.4396 106.361 -34.3944 86.2079Z" fill="white" fill-opacity="0.05"/>
<g id="Group 2">
<g id="Group 1">
<g id="Group">
<path id="Vector_2" d="M59.9292 19.1854C58.7225 17.9788 57.0333 17.2146 55.1831 17.2146C52.2872 17.2146 49.6326 16.0481 47.7422 14.1175C45.8518 12.2272 44.6452 9.57258 44.6452 6.67667C44.6452 2.97635 41.6689 0 37.9685 0H23.8912C22.0411 0 20.3518 0.764198 19.1452 1.97083C17.9385 3.17745 17.1743 4.86673 17.1743 6.71689C17.1743 12.5489 12.4685 17.2548 6.63645 17.2548C3.01657 17.2146 0 20.1909 0 23.8912V37.9685C0 41.6689 3.01657 44.6452 6.67667 44.6452C9.57258 44.6452 12.2272 45.8116 14.1175 47.7422C16.0079 49.6326 17.2146 52.2872 17.2146 55.1831C17.2146 58.8834 20.1909 61.8598 23.8912 61.8598H37.9685C39.8187 61.8598 41.508 61.0956 42.7146 59.8889C43.9212 58.6823 44.6854 56.993 44.6854 55.1429C44.6854 52.247 45.8518 49.5924 47.7825 47.702C49.6728 45.8116 52.3274 44.605 55.2233 44.605C58.9236 44.605 61.9 41.5884 61.9 37.9283V23.851C61.9 22.0411 61.1358 20.392 59.9292 19.1854ZM30.9299 46.8172C22.1617 46.8172 15.0828 39.698 15.0828 30.9701C15.0828 22.2019 22.2019 15.1231 30.9299 15.1231C39.6578 15.1231 46.7769 22.2422 46.7769 30.9701C46.8172 39.698 39.698 46.8172 30.9299 46.8172Z" fill="white"/>
</g>
<g id="Group_2">
<path id="Vector_3" d="M31.0506 44.4836C38.4694 44.4836 44.4836 38.4694 44.4836 31.0506C44.4836 23.6317 38.4694 17.6176 31.0506 17.6176C23.6317 17.6176 17.6176 23.6317 17.6176 31.0506C17.6176 38.4694 23.6317 44.4836 31.0506 44.4836Z" fill="#F7A582"/>
</g>
<g id="Group_3">
<g id="Group_4">
<path id="Vector_4" d="M38.4519 29.4285V32.7129C38.4519 33.508 37.795 34.1649 36.9998 34.1649H34.1649V36.9999C34.1649 37.795 33.508 38.4519 32.7128 38.4519H29.4284C28.6333 38.4519 27.9764 37.795 27.9764 36.9999V34.1649H25.1414C24.3463 34.1649 23.6894 33.508 23.6894 32.7129V29.4285C23.6894 28.6333 24.3463 27.9764 25.1414 27.9764H27.9764V25.1415C27.9764 24.3463 28.6333 23.6895 29.4284 23.6895H32.7128C33.508 23.6895 34.1649 24.3463 34.1649 25.1415V27.9764H36.9998C37.795 27.9764 38.4519 28.6333 38.4519 29.4285Z" fill="white"/>
</g>
</g>
</g>
</g>
</g>
<defs>
<clipPath id="clip0_0_1">
<rect width="1600" height="5232" fill="white" transform="translate(-230 -50)"/>
</clipPath>
</defs>
</svg>
